<mxfile host="Electron" agent="Mozilla/5.0 (Windows NT 10.0; Win64; x64) AppleWebKit/537.36 (KHTML, like Gecko) draw.io/24.7.8 Chrome/128.0.6613.36 Electron/32.0.1 Safari/537.36" version="24.7.8">
  <diagram name="Page-1" id="vCWl5ho3h-dKboQX_Rkd">
    <mxGraphModel dx="1434" dy="836" grid="1" gridSize="10" guides="1" tooltips="1" connect="1" arrows="1" fold="1" page="1" pageScale="1" pageWidth="1100" pageHeight="850" math="0" shadow="0">
      <root>
        <mxCell id="0" />
        <mxCell id="1" parent="0" />
        <mxCell id="143Xb5UVn4bL5o6SgBOt-1" value="Master&lt;div&gt;SoC&lt;/div&gt;" style="rounded=0;whiteSpace=wrap;html=1;snapToPoint=1;arcSize=12;" parent="1" vertex="1">
          <mxGeometry x="280" y="80" width="120" height="160" as="geometry" />
        </mxCell>
        <mxCell id="143Xb5UVn4bL5o6SgBOt-3" value="RF ID" style="rounded=0;whiteSpace=wrap;html=1;" parent="1" vertex="1">
          <mxGeometry x="560" y="100" width="80" height="120" as="geometry" />
        </mxCell>
        <mxCell id="143Xb5UVn4bL5o6SgBOt-4" value="" style="endArrow=none;html=1;rounded=0;entryX=0.004;entryY=0.331;entryDx=0;entryDy=0;entryPerimeter=0;exitX=1;exitY=0.4;exitDx=0;exitDy=0;exitPerimeter=0;" parent="1" target="143Xb5UVn4bL5o6SgBOt-3" edge="1">
          <mxGeometry width="50" height="50" relative="1" as="geometry">
            <mxPoint x="400" y="140" as="sourcePoint" />
            <mxPoint x="518.5599999999997" y="120.00000000000006" as="targetPoint" />
          </mxGeometry>
        </mxCell>
        <mxCell id="143Xb5UVn4bL5o6SgBOt-5" value="" style="pointerEvents=1;verticalLabelPosition=bottom;shadow=0;dashed=0;align=center;html=1;verticalAlign=top;shape=mxgraph.electrical.signal_sources.protective_earth;strokeWidth=1;" parent="1" vertex="1">
          <mxGeometry x="590" y="230" width="20" height="15" as="geometry" />
        </mxCell>
        <mxCell id="143Xb5UVn4bL5o6SgBOt-6" value="" style="pointerEvents=1;verticalLabelPosition=bottom;shadow=0;dashed=0;align=center;html=1;verticalAlign=top;shape=mxgraph.electrical.resistors.resistor_2;direction=south;strokeWidth=1;" parent="1" vertex="1">
          <mxGeometry x="435" y="52" width="10" height="60" as="geometry" />
        </mxCell>
        <mxCell id="143Xb5UVn4bL5o6SgBOt-7" value="V&lt;sub&gt;dd&lt;/sub&gt;" style="verticalLabelPosition=top;verticalAlign=bottom;shape=mxgraph.electrical.signal_sources.vdd;shadow=0;dashed=0;align=center;strokeWidth=1;fontSize=24;html=1;flipV=1;noLabel=1;" parent="1" vertex="1">
          <mxGeometry x="592" y="88" width="16" height="12" as="geometry" />
        </mxCell>
        <mxCell id="143Xb5UVn4bL5o6SgBOt-8" value="V&lt;sub&gt;dd&lt;/sub&gt;" style="text;html=1;align=center;verticalAlign=middle;resizable=1;points=[];autosize=1;strokeColor=none;fillColor=none;strokeWidth=1;" parent="1" vertex="1">
          <mxGeometry x="580" y="69" width="40" height="20" as="geometry" />
        </mxCell>
        <mxCell id="143Xb5UVn4bL5o6SgBOt-9" value="" style="endArrow=none;html=1;rounded=0;entryX=1;entryY=0.5;entryDx=0;entryDy=0;entryPerimeter=0;exitX=0;exitY=0.57;exitDx=0;exitDy=0;exitPerimeter=0;strokeWidth=1;" parent="1" target="143Xb5UVn4bL5o6SgBOt-6" edge="1">
          <mxGeometry width="50" height="50" relative="1" as="geometry">
            <mxPoint x="440.03" y="109.00000000000023" as="sourcePoint" />
            <mxPoint x="460" y="2.5" as="targetPoint" />
          </mxGeometry>
        </mxCell>
        <mxCell id="143Xb5UVn4bL5o6SgBOt-10" value="V&lt;sub&gt;dd&lt;/sub&gt;" style="verticalLabelPosition=top;verticalAlign=bottom;shape=mxgraph.electrical.signal_sources.vdd;shadow=0;dashed=0;align=center;strokeWidth=1;fontSize=24;html=1;flipV=1;noLabel=1;" parent="1" vertex="1">
          <mxGeometry x="332" y="68" width="16" height="12" as="geometry" />
        </mxCell>
        <mxCell id="143Xb5UVn4bL5o6SgBOt-11" value="V&lt;sub&gt;dd&lt;/sub&gt;" style="text;html=1;align=center;verticalAlign=middle;resizable=1;points=[];autosize=1;strokeColor=none;fillColor=none;strokeWidth=1;" parent="1" vertex="1">
          <mxGeometry x="320" y="48" width="40" height="20" as="geometry" />
        </mxCell>
        <mxCell id="143Xb5UVn4bL5o6SgBOt-12" value="" style="pointerEvents=1;verticalLabelPosition=bottom;shadow=0;dashed=0;align=center;html=1;verticalAlign=top;shape=mxgraph.electrical.signal_sources.protective_earth;strokeWidth=1;" parent="1" vertex="1">
          <mxGeometry x="330" y="250" width="20" height="15" as="geometry" />
        </mxCell>
        <mxCell id="143Xb5UVn4bL5o6SgBOt-13" value="V&lt;sub&gt;dd&lt;/sub&gt;" style="verticalLabelPosition=top;verticalAlign=bottom;shape=mxgraph.electrical.signal_sources.vdd;shadow=0;dashed=0;align=center;strokeWidth=1;fontSize=24;html=1;flipV=1;noLabel=1;" parent="1" vertex="1">
          <mxGeometry x="432" y="50" width="16" height="12" as="geometry" />
        </mxCell>
        <mxCell id="143Xb5UVn4bL5o6SgBOt-14" value="V&lt;sub&gt;dd&lt;/sub&gt;" style="text;html=1;align=center;verticalAlign=middle;resizable=1;points=[];autosize=1;strokeColor=none;fillColor=none;strokeWidth=1;" parent="1" vertex="1">
          <mxGeometry x="420" y="30" width="40" height="20" as="geometry" />
        </mxCell>
        <mxCell id="143Xb5UVn4bL5o6SgBOt-15" value="" style="endArrow=none;html=1;rounded=0;exitX=0.5;exitY=1;exitDx=0;exitDy=0;entryX=0.5;entryY=0;entryDx=0;entryDy=0;entryPerimeter=0;" parent="1" source="143Xb5UVn4bL5o6SgBOt-1" target="143Xb5UVn4bL5o6SgBOt-12" edge="1">
          <mxGeometry width="50" height="50" relative="1" as="geometry">
            <mxPoint x="450" y="260" as="sourcePoint" />
            <mxPoint x="500" y="210" as="targetPoint" />
          </mxGeometry>
        </mxCell>
        <mxCell id="143Xb5UVn4bL5o6SgBOt-16" value="" style="endArrow=none;html=1;rounded=0;entryX=0.5;entryY=1;entryDx=0;entryDy=0;exitX=0.5;exitY=0;exitDx=0;exitDy=0;exitPerimeter=0;" parent="1" source="143Xb5UVn4bL5o6SgBOt-5" target="143Xb5UVn4bL5o6SgBOt-3" edge="1">
          <mxGeometry width="50" height="50" relative="1" as="geometry">
            <mxPoint x="450" y="240" as="sourcePoint" />
            <mxPoint x="500" y="190" as="targetPoint" />
          </mxGeometry>
        </mxCell>
        <mxCell id="143Xb5UVn4bL5o6SgBOt-17" value="SDA&lt;sub&gt;2&lt;/sub&gt;" style="text;html=1;align=center;verticalAlign=middle;resizable=1;points=[];autosize=1;strokeColor=none;fillColor=none;" parent="1" vertex="1">
          <mxGeometry x="355" y="125" width="50" height="30" as="geometry" />
        </mxCell>
        <mxCell id="143Xb5UVn4bL5o6SgBOt-18" value="SDA" style="text;html=1;align=center;verticalAlign=middle;resizable=1;points=[];autosize=1;strokeColor=none;fillColor=none;" parent="1" vertex="1">
          <mxGeometry x="560" y="130" width="30" height="20" as="geometry" />
        </mxCell>
        <mxCell id="143Xb5UVn4bL5o6SgBOt-19" value="SCL" style="text;html=1;align=center;verticalAlign=middle;resizable=1;points=[];autosize=1;strokeColor=none;fillColor=none;" parent="1" vertex="1">
          <mxGeometry x="550" y="170" width="50" height="20" as="geometry" />
        </mxCell>
        <mxCell id="143Xb5UVn4bL5o6SgBOt-20" value="" style="endArrow=none;html=1;rounded=0;exitX=1;exitY=0.6;exitDx=0;exitDy=0;exitPerimeter=0;" parent="1" edge="1">
          <mxGeometry width="50" height="50" relative="1" as="geometry">
            <mxPoint x="400" y="180" as="sourcePoint" />
            <mxPoint x="560" y="180" as="targetPoint" />
          </mxGeometry>
        </mxCell>
        <mxCell id="143Xb5UVn4bL5o6SgBOt-21" value="" style="pointerEvents=1;verticalLabelPosition=bottom;shadow=0;dashed=0;align=center;html=1;verticalAlign=top;shape=mxgraph.electrical.resistors.resistor_2;direction=south;strokeWidth=1;" parent="1" vertex="1">
          <mxGeometry x="475" y="81" width="10" height="60" as="geometry" />
        </mxCell>
        <mxCell id="143Xb5UVn4bL5o6SgBOt-22" value="V&lt;sub&gt;dd&lt;/sub&gt;" style="verticalLabelPosition=top;verticalAlign=bottom;shape=mxgraph.electrical.signal_sources.vdd;shadow=0;dashed=0;align=center;strokeWidth=1;fontSize=24;html=1;flipV=1;noLabel=1;" parent="1" vertex="1">
          <mxGeometry x="472" y="79.5" width="16" height="12" as="geometry" />
        </mxCell>
        <mxCell id="143Xb5UVn4bL5o6SgBOt-23" value="V&lt;sub&gt;dd&lt;/sub&gt;" style="text;html=1;align=center;verticalAlign=middle;resizable=1;points=[];autosize=1;strokeColor=none;fillColor=none;strokeWidth=1;" parent="1" vertex="1">
          <mxGeometry x="460" y="60" width="40" height="20" as="geometry" />
        </mxCell>
        <mxCell id="143Xb5UVn4bL5o6SgBOt-24" value="" style="endArrow=none;html=1;rounded=0;" parent="1" edge="1">
          <mxGeometry width="50" height="50" relative="1" as="geometry">
            <mxPoint x="440" y="140" as="sourcePoint" />
            <mxPoint x="440" y="110" as="targetPoint" />
          </mxGeometry>
        </mxCell>
        <mxCell id="143Xb5UVn4bL5o6SgBOt-25" value="" style="endArrow=none;html=1;rounded=0;entryX=1;entryY=0.5;entryDx=0;entryDy=0;entryPerimeter=0;" parent="1" target="143Xb5UVn4bL5o6SgBOt-21" edge="1">
          <mxGeometry width="50" height="50" relative="1" as="geometry">
            <mxPoint x="480.1" y="180" as="sourcePoint" />
            <mxPoint x="479.90000000000003" y="122.5" as="targetPoint" />
          </mxGeometry>
        </mxCell>
        <mxCell id="143Xb5UVn4bL5o6SgBOt-40" value="SCL&lt;sub&gt;2&lt;/sub&gt;" style="text;html=1;align=center;verticalAlign=middle;resizable=1;points=[];autosize=1;strokeColor=none;fillColor=none;" parent="1" vertex="1">
          <mxGeometry x="355" y="165" width="50" height="30" as="geometry" />
        </mxCell>
        <mxCell id="143Xb5UVn4bL5o6SgBOt-44" value="" style="shape=flexArrow;endArrow=classic;startArrow=classic;html=1;rounded=0;entryX=0;entryY=0.25;entryDx=0;entryDy=0;startWidth=12;startSize=5.5566666666666675;width=7.333333333333333;endWidth=12;endSize=5.5566666666666675;" parent="1" target="143Xb5UVn4bL5o6SgBOt-1" edge="1">
          <mxGeometry width="100" height="100" relative="1" as="geometry">
            <mxPoint x="200" y="120" as="sourcePoint" />
            <mxPoint x="210" y="100" as="targetPoint" />
          </mxGeometry>
        </mxCell>
        <mxCell id="143Xb5UVn4bL5o6SgBOt-46" value="" style="shape=flexArrow;endArrow=classic;startArrow=classic;html=1;rounded=0;entryX=0;entryY=0.75;entryDx=0;entryDy=0;startWidth=12;startSize=5.5566666666666675;width=7.333333333333333;endWidth=12;endSize=5.5566666666666675;" parent="1" target="143Xb5UVn4bL5o6SgBOt-1" edge="1">
          <mxGeometry width="100" height="100" relative="1" as="geometry">
            <mxPoint x="200" y="200" as="sourcePoint" />
            <mxPoint x="240" y="195" as="targetPoint" />
          </mxGeometry>
        </mxCell>
        <mxCell id="143Xb5UVn4bL5o6SgBOt-47" value="Accelerometer" style="rounded=0;whiteSpace=wrap;html=1;" parent="1" vertex="1">
          <mxGeometry x="80" y="90" width="120" height="61.5" as="geometry" />
        </mxCell>
        <mxCell id="143Xb5UVn4bL5o6SgBOt-48" value="Pressure sensor" style="rounded=0;whiteSpace=wrap;html=1;" parent="1" vertex="1">
          <mxGeometry x="80" y="170" width="120" height="61.5" as="geometry" />
        </mxCell>
      </root>
    </mxGraphModel>
  </diagram>
</mxfile>
